HIERARCHY
ROOT Hips
{
	OFFSET -14.64140 90.27770 -84.91600
	CHANNELS 6 Xposition Yposition Zposition Zrotation Xrotation Yrotation
	JOINT Spine
	{
		OFFSET 0.00000 13.20850 -1.60436
		CHANNELS 3 Zrotation Xrotation Yrotation
		JOINT Spine1
		{
			OFFSET 0.00000 8.61716 0.00000
			CHANNELS 3 Zrotation Xrotation Yrotation
			JOINT Spine2
			{
				OFFSET 0.00000 8.61717 0.00000
				CHANNELS 3 Zrotation Xrotation Yrotation
				JOINT Spine3
				{
					OFFSET 0.00000 8.61717 0.00000
					CHANNELS 3 Zrotation Xrotation Yrotation
					JOINT Neck
					{
						OFFSET 0.00000 11.07920 1.10792
						CHANNELS 3 Zrotation Xrotation Yrotation
						JOINT Neck1
						{
							OFFSET 0.00000 7.08032 0.00000
							CHANNELS 3 Zrotation Xrotation Yrotation
							JOINT Head
							{
								OFFSET 0.00000 7.08031 0.00000
								CHANNELS 3 Zrotation Xrotation Yrotation
								End site
								{
									OFFSET 0.00000 0.00000 0.00000
								}
							}
						}
					}
					JOINT RightShoulder
					{
						OFFSET -0.01000 7.91373 5.19711
						CHANNELS 3 Zrotation Xrotation Yrotation
						JOINT RightArm
						{
							OFFSET -18.41580 0.00000 0.00000
							CHANNELS 3 Zrotation Xrotation Yrotation
							JOINT RightForeArm
							{
								OFFSET -29.11090 0.00000 0.00000
								CHANNELS 3 Zrotation Xrotation Yrotation
								JOINT RightHand
								{
									OFFSET -24.65040 0.00000 0.00000
									CHANNELS 3 Zrotation Xrotation Yrotation
									JOINT RightHandThumb1
									{
										OFFSET -5.35114 -0.85590 3.97906
										CHANNELS 3 Zrotation Xrotation Yrotation
										JOINT RightHandThumb2
										{
											OFFSET -4.52789 0.00000 0.00000
											CHANNELS 3 Zrotation Xrotation Yrotation
											JOINT RightHandThumb3
											{
												OFFSET -2.46976 0.00000 0.00000
												CHANNELS 3 Zrotation Xrotation Yrotation
												End site
												{
													OFFSET 0.00000 0.00000 0.00000
												}
											}
										}
									}
									JOINT RightHandIndex1
									{
										OFFSET -14.26970 0.00000 2.88139
										CHANNELS 3 Zrotation Xrotation Yrotation
										JOINT RightHandIndex2
										{
											OFFSET -5.48836 0.00000 0.00000
											CHANNELS 3 Zrotation Xrotation Yrotation
											JOINT RightHandIndex3
											{
												OFFSET -3.01859 0.00000 0.00000
												CHANNELS 3 Zrotation Xrotation Yrotation
												End site
												{
													OFFSET 0.00000 0.00000 0.00000
												}
											}
										}
									}
									JOINT RightHandMiddle1
									{
										OFFSET -14.26970 0.00000 -0.09147
										CHANNELS 3 Zrotation Xrotation Yrotation
										JOINT RightHandMiddle2
										{
											OFFSET -6.17441 0.00000 0.00000
											CHANNELS 3 Zrotation Xrotation Yrotation
											JOINT RightHandMiddle3
											{
												OFFSET -3.56743 0.00000 0.00000
												CHANNELS 3 Zrotation Xrotation Yrotation
												End site
												{
													OFFSET 0.00000 0.00000 0.00000
												}
											}
										}
									}
									JOINT RightHandRing1
									{
										OFFSET -12.69180 0.00000 -3.06433
										CHANNELS 3 Zrotation Xrotation Yrotation
										JOINT RightHandRing2
										{
											OFFSET -5.62556 0.00000 0.00000
											CHANNELS 3 Zrotation Xrotation Yrotation
											JOINT RightHandRing3
											{
												OFFSET -3.56744 0.00000 0.00000
												CHANNELS 3 Zrotation Xrotation Yrotation
												End site
												{
													OFFSET 0.00000 0.00000 0.00000
												}
											}
										}
									}
									JOINT RightHandPinky1
									{
										OFFSET -11.11390 0.00000 -6.03719
										CHANNELS 3 Zrotation Xrotation Yrotation
										JOINT RightHandPinky2
										{
											OFFSET -4.52789 0.00000 0.00000
											CHANNELS 3 Zrotation Xrotation Yrotation
											JOINT RightHandPinky3
											{
												OFFSET -2.46976 0.00000 0.00000
												CHANNELS 3 Zrotation Xrotation Yrotation
												End site
												{
													OFFSET 0.00000 0.00000 0.00000
												}
											}
										}
									}
								}
							}
						}
					}
					JOINT LeftShoulder
					{
						OFFSET 0.01000 7.91373 5.19711
						CHANNELS 3 Zrotation Xrotation Yrotation
						JOINT LeftArm
						{
							OFFSET 18.41580 0.00000 0.00000
							CHANNELS 3 Zrotation Xrotation Yrotation
							JOINT LeftForeArm
							{
								OFFSET 29.11090 0.00000 0.00000
								CHANNELS 3 Zrotation Xrotation Yrotation
								JOINT LeftHand
								{
									OFFSET 24.65040 0.00000 0.00000
									CHANNELS 3 Zrotation Xrotation Yrotation
									JOINT LeftHandThumb1
									{
										OFFSET 5.35114 -0.85590 3.97906
										CHANNELS 3 Zrotation Xrotation Yrotation
										JOINT LeftHandThumb2
										{
											OFFSET 4.52789 0.00000 0.00000
											CHANNELS 3 Zrotation Xrotation Yrotation
											JOINT LeftHandThumb3
											{
												OFFSET 2.46977 0.00000 0.00000
												CHANNELS 3 Zrotation Xrotation Yrotation
												End site
												{
													OFFSET 0.00000 0.00000 0.00000
												}
											}
										}
									}
									JOINT LeftHandIndex1
									{
										OFFSET 14.26970 0.00000 2.88139
										CHANNELS 3 Zrotation Xrotation Yrotation
										JOINT LeftHandIndex2
										{
											OFFSET 5.48836 0.00000 0.00000
											CHANNELS 3 Zrotation Xrotation Yrotation
											JOINT LeftHandIndex3
											{
												OFFSET 3.01859 0.00000 0.00000
												CHANNELS 3 Zrotation Xrotation Yrotation
												End site
												{
													OFFSET 0.00000 0.00000 0.00000
												}
											}
										}
									}
									JOINT LeftHandMiddle1
									{
										OFFSET 14.26970 0.00000 -0.09147
										CHANNELS 3 Zrotation Xrotation Yrotation
										JOINT LeftHandMiddle2
										{
											OFFSET 6.17440 0.00000 0.00000
											CHANNELS 3 Zrotation Xrotation Yrotation
											JOINT LeftHandMiddle3
											{
												OFFSET 3.56744 0.00000 0.00000
												CHANNELS 3 Zrotation Xrotation Yrotation
												End site
												{
													OFFSET 0.00000 0.00000 0.00000
												}
											}
										}
									}
									JOINT LeftHandRing1
									{
										OFFSET 12.69180 0.00000 -3.06433
										CHANNELS 3 Zrotation Xrotation Yrotation
										JOINT LeftHandRing2
										{
											OFFSET 5.62556 0.00000 0.00000
											CHANNELS 3 Zrotation Xrotation Yrotation
											JOINT LeftHandRing3
											{
												OFFSET 3.56744 0.00000 0.00000
												CHANNELS 3 Zrotation Xrotation Yrotation
												End site
												{
													OFFSET 0.00000 0.00000 0.00000
												}
											}
										}
									}
									JOINT LeftHandPinky1
									{
										OFFSET 11.11390 0.00000 -6.03719
										CHANNELS 3 Zrotation Xrotation Yrotation
										JOINT LeftHandPinky2
										{
											OFFSET 4.52789 0.00000 0.00000
											CHANNELS 3 Zrotation Xrotation Yrotation
											JOINT LeftHandPinky3
											{
												OFFSET 2.46976 0.00000 0.00000
												CHANNELS 3 Zrotation Xrotation Yrotation
												End site
												{
													OFFSET 0.00000 0.00000 0.00000
												}
											}
										}
									}
								}
							}
						}
					}
					JOINT pCube4
					{
						OFFSET 0.00000 10.91090 1.10792
						CHANNELS 3 Zrotation Xrotation Yrotation
						End site
						{
							OFFSET 0.00000 0.00000 0.00000
						}
					}
				}
			}
		}
	}
	JOINT RightUpLeg
	{
		OFFSET -9.98441 0.00000 0.00000
		CHANNELS 3 Zrotation Xrotation Yrotation
		JOINT RightLeg
		{
			OFFSET 0.00000 -42.11790 0.00000
			CHANNELS 3 Zrotation Xrotation Yrotation
			JOINT RightFoot
			{
				OFFSET 0.00000 -45.00020 -0.00001
				CHANNELS 3 Zrotation Xrotation Yrotation
				JOINT RightForeFoot
				{
					OFFSET 0.00000 -3.74820 0.00000
					CHANNELS 3 Zrotation Xrotation Yrotation
					JOINT RightToeBase
					{
						OFFSET 0.00000 0.06325 14.43120
						CHANNELS 3 Zrotation Xrotation Yrotation
						End site
						{
							OFFSET 0.00000 0.00000 0.00000
						}
					}
				}
			}
		}
	}
	JOINT LeftUpLeg
	{
		OFFSET 9.98441 0.00000 0.00000
		CHANNELS 3 Zrotation Xrotation Yrotation
		JOINT LeftLeg
		{
			OFFSET 0.00000 -42.11800 0.00000
			CHANNELS 3 Zrotation Xrotation Yrotation
			JOINT LeftFoot
			{
				OFFSET 0.00000 -45.00070 0.00000
				CHANNELS 3 Zrotation Xrotation Yrotation
				JOINT LeftForeFoot
				{
					OFFSET 0.00000 -3.74824 0.00000
					CHANNELS 3 Zrotation Xrotation Yrotation
					JOINT LeftToeBase
					{
						OFFSET 0.00000 0.06325 14.43110
						CHANNELS 3 Zrotation Xrotation Yrotation
						End site
						{
							OFFSET 0.00000 0.00000 0.00000
						}
					}
				}
			}
		}
	}
}
MOTION
Frames: 4
Frame Time: 0.050000
-0.002978122444373057 0.02768637754720718 -0.04864677312036001 0.03976423049415255 -0.02226418908579246 0.0008941349824141076 -3.979303505427776 0.7482473287787949 -0.688850749807627 -1.1106366296480763 3.5665534283171905 0.36278359574109964 -1.2809084251369285 -2.3623938692913047 -2.2350845148162164 -1.6027230366065863 0.21274818014472985 -0.877075860655219 -1.3235802167982722 13.265342902966795 5.119048813088944 0.40002332181731337 -0.21692087396290577 12.275718681643593 -1.0932110945571556 -15.578859149487286 0.9965122167056317 -6.426224076447758 2.4182472675264424 -15.44230630279186 68.26177745073959 13.868125547639444 -2.6357666672888103 -11.426698075615379 -2.5526605794611967 90.43735656435308 25.809568386516602 -0.6315709273327507 -6.4233086559931705 4.511533349188527 -0.09313828529431933 -1.638678879029969 0.01857539552642494 0.017784819938160525 -56.23382677685365 -0.03417909654420253 0.0008834302852057793 -56.24189752258432 -38.75694276642007 -0.010815297687605337 0.01770346629496121 -0.008942760316531803 0.03214954671129845 -0.03525651609665438 0.036796757553298066 0.0003647685717328663 0.020886641921098546 -36.702355497774334 0.04920378337228058 0.0017796583669735903 0.029586562603752947 0.013437099237163089 -0.04947538580613061 0.011658679247934706 0.015584039118076858 0.011860460511929401 -19.72701223891258 -0.01786342037355044 -0.022640139282618103 -0.0011890916283477772 -0.047428818606649444 -0.03644379436831911 0.04202515358623483 0.021653712675375632 0.01979835439407787 24.075024296134806 -0.0012637260686034762 -0.04553435937547258 28.867711520982507 0.04278090342354549 0.035358858055822964 28.886414953829043 0.006092988515728053 0.0040210067716075215 9.455135790792445 2.0378158775669064 12.913654173257248 -70.76316063484718 31.21053345685824 -9.483759119841489 -12.783770255889438 -9.624222399749002 -64.56042252790938 -12.485723653182369 -2.869147448660621 3.778410834810786 -0.4299044269103741 0.07100746806458551 -8.154374129868609 0.019575605647596618 -0.028707301230140137 44.59432264744636 0.04174190011022171 -0.04393177093133914 44.52396979623643 12.502351390859916 0.02836632280288709 -0.001840439838699933 0.0019041833171305554 0.0476283549299686 -0.010686896139068312 0.0065869154225280365 -0.032475758575809345 0.04891572086770044 11.062245887974294 -0.03196537006078088 -0.03543103541616738 -0.04817342691720318 -0.006935544725995253 0.0346361794159483 0.03985466248569644 -0.010300964051516011 0.02681087648956042 4.74525095915407 -0.007981142786021318 -0.029346258674143148 -0.00021976892932242822 -0.01012478135328273 -0.01531456265563032 0.005831274443107636 -0.04178033231083982 0.008556111031159306 -5.609413872363225 -0.002927796193551166 0.03531092859358025 -6.740288542227237 -0.013695933498477359 -0.007653316845772471 -6.724632358233164 -0.036771107558729726 -0.007827491015664637 -0.012123066179858928 0.04439976292649632 0.006068427779798787 7.9978004578457 3.4930796893784084 -19.26429308725195 -0.04162414736772542 10.416864801303896 -0.023782062226844116 -5.64889680437698 -15.64681345330254 3.16098152050845 0.04983086555121973 -0.02957860572231894 0.01571257039716446 0.03569183383641746 4.739128544053738 0.004406889952972009 12.477157298456897 -8.258168029333152 6.853345581777873 -0.026959681200526466 46.40587815286699 0.009054001676578617 -4.2915732064406145 -14.74543938619851 -3.8808219348370825 -0.02130469089534326 -0.007434214118530235 0.01288131355390262 -0.036832034666342175 -10.793773217103237 0.007376282037977247 
-0.031403596128554624 0.0038843849453272256 0.014805048558126786 -0.002908333757920613 0.027180699776837642 -0.045050472265051544 -3.7009740751187166 0.5988907832030539 -0.7849377750255888 -1.0324750668186706 3.5426516270027695 0.36918966969546463 -1.2222472105322386 -2.426375325764081 -2.2685854448038483 -1.5600255178844256 0.18715328059322167 -0.8691487996024136 -1.3884595510610933 13.322765058534666 5.1023030805807315 0.37430458596832805 0.057567628747723545 12.381673555454443 -1.055144478847778 -15.214601215453516 0.9917142301983388 -6.459098355679359 2.4663547200631832 -15.388700245576505 67.48118736096346 14.91124409110241 -2.2453707989638505 -14.822119902597011 -2.918214056057219 91.19889084138147 26.00107161439188 -0.5431112527553685 -6.7628098361573095 4.556216857012545 -0.16002551558838307 -1.6221343583947447 -0.02569571880459838 -0.023376184360097526 -56.20393627718559 -0.02382277335874539 -0.014905390250518341 -56.2534466530202 -38.72525425409678 -0.033167784802196974 -0.017235192478638996 -0.00723433558700106 -0.0389412144529734 0.002038777454805852 -0.020716952196548007 -0.0029387337368923525 0.020389864907110415 -36.6640179868226 0.012092598159446665 -0.014060991477994268 -0.037836047772509755 -0.033393222735503575 0.0005666335358208934 -0.030504502527830598 0.0277905320964992 0.012853992979565665 -19.763932883860523 0.006217373902864976 -0.045257703215223564 0.008242938633478756 0.04325821921414552 -0.01414164575282513 -0.02427780419948025 0.004765678879557441 0.013666206042125414 24.014318712463105 -0.027449811208525736 -0.013594498574616483 28.900496428177888 -0.02900566440100297 -0.010798809512255102 28.86363729912882 0.039827073468557586 0.020581300879344466 9.671965270088766 2.13643571024326 12.888625901717568 -70.6985126970204 30.5739895871875 -10.861638779230185 -12.335113926782682 -10.909656472699236 -65.29234660845518 -12.524324665499053 -3.606893364634452 4.251457110351734 -0.5010702254077832 0.027496732144665713 -8.10197712501673 0.032663882732701134 0.018772887251340128 44.60327144568359 -0.0038527578965232897 0.01189284649753637 44.55938150979661 12.44387054591976 -0.00588736154819914 -0.001108864616558112 -0.011817640286528486 0.0029786435971273124 -0.009360249200642894 -0.007782501208520054 -0.0035678820359924517 0.01876675588898876 11.105548647309432 0.005155308112379689 0.00916631069778173 0.00461681578865529 -0.022956318247991665 -0.011172482122178218 0.04079607938086355 -0.015427072776756185 0.04235043327945942 4.735504822321527 -0.0017163319039363474 -0.022174360064549835 -0.022256401865154814 0.013262416630507251 0.048702988517373424 -0.007969234071506763 0.016619933694341317 0.043969690794538795 -5.60616910369564 0.01834421298720737 0.022114200647854697 -6.763358583347722 0.04632810098471544 -0.0311279568737022 -6.739343569075563 -0.0017589654303944852 0.025239989559690146 -0.01698405206704171 0.028257872148513854 0.004945034225113099 8.069927507576505 3.515673855928496 -19.209456766413517 -0.003776487606039971 10.420835242182632 -0.030714518034748377 -5.634049086762658 -15.625288293743576 3.2373114095974262 0.020617456596679625 0.011339302126539781 0.0023197026729955095 0.0030277213466160147 4.738694863987708 0.04651080205344472 12.490445840679698 -8.232740070433518 6.871772584083879 -0.034064758536466434 46.33080267903139 0.04029242419022253 -4.349578138157899 -14.752996208910844 -3.8754317495223867 0.03906942049392124 0.03361227273441304 0.00934221030724036 -0.0248171309638362 -10.749218900710257 -0.007959676364313694 
-0.025946106090120574 0.047876862974672044 -0.0005564323356308436 0.040323901837077396 0.02563024111680396 -0.005403353119709456 -3.375493362079903 0.5231941162156993 -0.7608683769908304 -1.0632526390403472 3.5590397590978036 0.41417242473789306 -1.1914873241287642 -2.310622501142354 -2.2591915750970455 -1.4501084610431003 0.18324782475388424 -0.8995540490570304 -1.300428509498488 13.368095304769392 4.8743675299290485 0.441605494670196 0.3021939023146828 11.678302592479653 -1.0568933746875413 -14.853516651276571 0.9279113697052732 -6.463056384318277 2.4065592978817008 -15.408494533409234 66.94576186361951 16.36906301345371 -1.5397269180114828 -17.555569079141108 -2.9732621339138254 91.82197458515863 26.195586499588504 -0.5269091801112625 -7.232841875426629 4.523886588227502 -0.0957138402796118 -1.6074437515662723 -0.03882935490181541 0.031177265512711463 -56.264986540829966 -0.030628461707211986 0.021694175759170493 -56.20417078637923 -38.786798538102566 0.0005161992196414048 -0.023612414209642732 -0.024632985488979922 0.040896294197085646 0.013627460745958575 -0.010116600045769995 -0.019958186506896913 -0.021686197747646737 -36.7032970243253 -0.014147249871279369 -0.02592666928739586 -0.009981272601244356 0.040299775607491005 -0.04154552320760356 -0.032740876434538664 0.011650740798528311 -0.01849459017007808 -19.797039517867702 -0.011292898567743563 -0.013050969389918399 0.015762322653715036 -0.030582957691776134 -0.0236265530907376 -0.023726297893253014 0.003204706296974642 -0.040517662022696035 24.007843014933925 -0.008612935226362965 0.02341497281520013 28.82030017096996 0.007120278682349138 0.022833561896859148 28.846258401893955 -0.00941596298524511 0.02445715267319005 9.664405878625795 2.0996670749227073 12.831656998565222 -70.34586316504979 30.36552427084885 -11.546015113036285 -12.364730174835223 -11.123268606716234 -66.28636068637407 -13.101003586262975 -4.342020500825223 4.689390949171758 -0.49373304682270874 0.06954918353030079 -8.164224460094761 0.008546796090698673 -5.8053938349822345e-05 44.563071702665965 0.022802145283463464 -0.03770288897284712 44.58287275688565 12.480422751914473 -0.027377427872780594 -0.0019024620778972812 -0.008346454476511047 -0.032519661258534685 -0.007011894975619425 0.010582364965481086 -0.015568369432809754 0.008613111425930296 11.152075395830105 0.0495254348146532 0.003210165596863247 -0.00483132552574219 -0.027476377859825214 0.03513490746435316 0.02063989848264793 0.04982905119166689 -0.03931378819517645 4.8147252963116 0.01278501140253367 -0.0037704351715172712 -0.03368933307673325 0.045469912398452314 -0.04987726863675338 0.015037948702678668 -0.03590787294269542 -0.04360528494553899 -5.5677016849855185 -0.021117979991344422 -0.04812571696199398 -6.729472269084915 -0.04386825221364436 0.034176836772801526 -6.709466662376577 -0.013039354293863515 -0.00953495042446806 -0.0039400700875237065 0.0038862852689352813 -0.009787538910189693 8.032548672235386 3.4955049015603317 -19.257484336468952 -0.038589576252980054 10.367405748638005 -0.009424457076532819 -5.598828735389194 -15.690316262729231 3.21520606787058 -0.04270555424771775 0.03388829798829167 -0.01742644409049668 0.0003362296236852429 4.691290455392275 0.005496970506613758 12.493950750392102 -8.217177031988095 6.919809081918111 -0.004707449264465878 46.36580117915286 0.03270610874866983 -4.313002597947677 -14.791256411363443 -3.851472188835533 0.01004574204345911 0.04917939557219463 0.0007830821454089549 0.04527351974792292 -10.763808654931486 -0.01786843890110777 
0.015921486803175466 -0.040444611134988595 0.03234236830037475 -0.0009782827465593062 0.016553575116339658 0.0018637609000655654 -3.10781636261126 0.45668630177060876 -0.8204321474620121 -1.0342121771178607 3.452369742469139 0.40029350562139876 -1.1740150540655883 -2.310218163819824 -2.1605036629955534 -1.2673952805047617 0.2624270534473718 -0.9110512538128104 -1.1355782692935033 13.355203783581942 4.363155767916495 0.39142838582262457 0.4745274058592578 10.547452156195774 -0.992121444720431 -14.438762082386972 0.8454145839605708 -6.3548595385195386 2.4479972063897204 -15.373665638529236 66.7724761314594 18.361183190693946 -0.8350482415829027 -19.116414530759094 -2.739178496129111 92.60099547417362 26.351331203069726 -0.5505068294259695 -7.567549362600496 4.545281110366318 -0.14826628640264225 -1.628796978568392 0.0038432915310024174 0.003000814972431603 -56.230025121717006 0.045436689630246455 0.00858709567608903 -56.22193880489848 -38.78021909686742 -0.006180948761833135 -0.0021013344694332473 -0.014342237492739635 0.04696579394852036 0.021406613078592047 0.012762970303289404 -0.021224522007090216 -0.045896362532264576 -36.743081637001126 0.013879456632892324 0.024227006166245374 0.012473073063903748 0.018189213568506977 -0.04838464285513011 -0.028025782293277148 0.009281705647727139 -0.04805224086101239 -19.788016807281362 -0.04555847522422419 -0.008125205889425589 -0.01573957342205248 -0.003253362333927741 0.00372531228986124 -0.026368654375428027 0.04434320605917583 0.034086468493921364 24.082736183411996 0.015667436133384702 0.009446487470423726 28.86334982079508 0.010891479145783367 -0.005667747087091288 28.861594994988074 0.0364777512350319 0.02685824174195915 9.344538843985296 2.080272906865524 12.805505462602085 -70.1094785567997 30.36573333769249 -11.647143476266303 -12.941109952515562 -10.883745387571352 -66.75857372990392 -13.664599113775218 -4.7851826384704195 5.054327264696284 -0.4431537308705194 0.09573263960422161 -8.165621610530042 -0.03253627436353605 0.037617393959915604 44.560122018551795 0.014044422769024609 0.012993714488507118 44.57024635501831 12.458907958985952 0.000524504469481152 -0.017408168126442122 0.013432083772710962 0.03010586067878875 -0.048103850862751006 0.03860631470711888 0.008930069651001835 -0.003537365227126742 11.102931274174809 -0.026667138869754012 0.04325193031396803 -0.013728296301310724 0.019526064209613073 0.034468622413118495 0.018362544676175468 0.016294978075464334 -0.0034822058515458954 4.819703459322312 0.03436574287316758 -0.030951943306404776 0.019955673855198166 0.035906199477521564 -0.030169672077601493 0.010990427708872666 0.0015281816969329178 -0.016042337273670527 -5.6133092944539635 -0.030524245096396417 0.0319041750655094 -6.733376879594386 -0.03449007885384802 -0.028108930565119095 -6.682958089379254 0.04005520492635616 0.0073279927085194005 -0.01664505443579428 0.01770923644124563 0.015209029335116649 8.049146278542073 3.4504369370585275 -19.210380165505764 -0.012387879886191631 10.441056940278289 0.05814316214482464 -5.666457402404611 -15.669828327704687 3.1878969008942084 -0.014741999881418702 -0.029909609824701863 -0.012916118769388144 0.03393909544142319 4.697777283711221 -0.016958705994951126 12.423565510929166 -8.204414207175967 6.892759840049015 0.00328059664746572 46.338755599516205 0.02303950770347598 -4.329130013493808 -14.768617869895264 -3.8629848550722707 0.012529326965509917 -0.038957313720816636 -0.0222412137873656 0.015366132907980822 -10.699886716076383 -0.005057729099161331 
